<svg width="128" height="45" viewBox="0 0 128 45" fill="none" xmlns="http://www.w3.org/2000/svg">
<circle cx="22.0864" cy="22.0864" r="21.8382" transform="matrix(-1 0 0 1 102.61 0)" fill="#D5FF3F" stroke="black" stroke-width="0.496324"/>
<path d="M3.81176 27.2024C3.91765 28.4729 4.5 29.4576 5.55882 30.1565C6.63882 30.8553 8.07882 31.2153 9.87882 31.2365C11.8906 31.2365 13.4471 30.8871 14.5482 30.1882C15.6706 29.4894 16.2318 28.4624 16.2318 27.1071C16.2318 26.4506 16.0094 25.9318 15.5647 25.5506C15.1412 25.1694 14.5694 24.8624 13.8494 24.6294C13.1506 24.3753 12.3459 24.1847 11.4353 24.0576C10.5459 23.9094 9.62471 23.7612 8.67176 23.6129C7.74 23.4435 6.81882 23.2529 5.90824 23.0412C5.01882 22.8082 4.21412 22.4906 3.49412 22.0882C2.79529 21.6859 2.22353 21.1671 1.77882 20.5318C1.35529 19.8753 1.14353 19.06 1.14353 18.0859C1.14353 16.9635 1.36588 15.9894 1.81059 15.1635C2.27647 14.3165 2.91176 13.6176 3.71647 13.0671C4.52118 12.5165 5.46353 12.1035 6.54353 11.8282C7.62353 11.5529 8.77765 11.4259 10.0059 11.4471C11.1494 11.4682 12.2082 11.6059 13.1824 11.86C14.1776 12.1141 15.0459 12.4953 15.7871 13.0035C16.5494 13.4906 17.1635 14.1047 17.6294 14.8459C18.0953 15.5871 18.3706 16.4553 18.4553 17.4506L15.4694 17.8635C15.3635 16.7624 14.8871 15.9047 14.04 15.2906C13.1929 14.6765 11.8482 14.3694 10.0059 14.3694C8.18471 14.3694 6.76588 14.6976 5.74941 15.3541C4.75412 15.9894 4.25647 16.9 4.25647 18.0859C4.25647 18.6788 4.46824 19.1447 4.89177 19.4835C5.33647 19.8012 5.90824 20.0659 6.60706 20.2776C7.32706 20.4682 8.13177 20.6271 9.02118 20.7541C9.93177 20.8812 10.8529 21.0188 11.7847 21.1671C12.7376 21.3153 13.6588 21.5059 14.5482 21.7388C15.4588 21.9718 16.2635 22.3106 16.9624 22.7553C17.6824 23.1788 18.2541 23.7294 18.6776 24.4071C19.1224 25.0847 19.3447 25.9529 19.3447 27.0118C19.3447 27.7741 19.2071 28.5788 18.9318 29.4259C18.6776 30.2518 18.1906 31.0247 17.4706 31.7447C16.7718 32.4435 15.8082 33.0259 14.58 33.4918C13.3729 33.9365 11.8165 34.1588 9.91059 34.1588C8.15294 34.1588 6.70235 33.9682 5.55882 33.5871C4.41529 33.2059 3.49412 32.7082 2.79529 32.0941C2.11765 31.4588 1.63059 30.7494 1.33412 29.9659C1.03765 29.1824 0.857647 28.3882 0.794118 27.5835L3.81176 27.2024ZM21.0851 18.1176H24.2298V20.1506C24.2298 20.5106 24.1874 20.9024 24.1027 21.3259C24.018 21.7494 23.9227 22.1412 23.8168 22.5012H23.8804C23.9862 22.1624 24.1239 21.7918 24.2933 21.3894C24.4839 20.9871 24.7062 20.6588 24.9604 20.4047C25.3204 20.0235 25.7439 19.6847 26.2309 19.3882C26.7392 19.0706 27.258 18.8059 27.7874 18.5941C28.338 18.3612 28.8992 18.1918 29.4709 18.0859C30.0427 17.98 30.5827 17.9271 31.0909 17.9271C33.4627 17.9482 35.3157 18.6259 36.6498 19.96C37.9839 21.2729 38.6509 23.3059 38.6509 26.0588C38.6509 28.8118 37.9839 30.8553 36.6498 32.1894C35.3157 33.5235 33.4627 34.1906 31.0909 34.1906C30.5827 34.1906 30.0427 34.1271 29.4709 34C28.8992 33.8941 28.338 33.7459 27.7874 33.5553C27.258 33.3435 26.7392 33.0894 26.2309 32.7929C25.7439 32.4965 25.3204 32.1576 24.9604 31.7765C24.7062 31.5224 24.4839 31.1941 24.2933 30.7918C24.1239 30.3894 23.9862 30.0188 23.8804 29.68H23.8168C23.9227 30.04 24.018 30.4318 24.1027 30.8553C24.1874 31.2788 24.2298 31.6706 24.2298 32.0306V40.3529H21.1168L21.0851 18.1176ZM24.2298 26.0588C24.2298 26.9059 24.3992 27.6788 24.738 28.3776C25.098 29.0553 25.5533 29.6376 26.1039 30.1247C26.6545 30.6118 27.2792 30.9824 27.978 31.2365C28.6768 31.4906 29.3757 31.6176 30.0745 31.6176C32.0227 31.6176 33.4204 31.1624 34.2674 30.2518C35.1145 29.3412 35.538 27.9435 35.538 26.0588C35.538 24.1741 35.1145 22.7976 34.2674 21.9294C33.4204 21.0612 32.0227 20.6165 30.0745 20.5953C29.3757 20.5953 28.6768 20.7224 27.978 20.9765C27.2792 21.2094 26.6545 21.5588 26.1039 22.0247C25.5533 22.4906 25.098 23.0624 24.738 23.74C24.3992 24.4176 24.2298 25.1906 24.2298 26.0588ZM40.3796 22.3741C40.3796 20.9341 40.7185 19.8647 41.3961 19.1659C42.0738 18.4671 43.1432 18.1176 44.6043 18.1176H50.9891V21.04L45.6208 21.0718C45.1761 21.0718 44.8161 21.0929 44.5408 21.1353C44.2655 21.1776 44.0432 21.2835 43.8738 21.4529C43.7255 21.6012 43.6196 21.8341 43.5561 22.1518C43.5138 22.4694 43.4926 22.9035 43.4926 23.4541V34H40.3796V22.3741ZM52.1236 18.1176H55.4589L59.5566 28.5365C59.7048 28.8753 59.8107 29.2565 59.8742 29.68C59.9378 30.1035 59.9695 30.4953 59.9695 30.8553H60.0331C60.0331 30.4953 60.0648 30.1035 60.1284 29.68C60.2131 29.2565 60.3295 28.8753 60.4778 28.5365L64.6072 18.1176H67.9425L60.6684 36.2553C60.3507 37.1447 59.9589 37.8753 59.4931 38.4471C59.0272 39.0188 58.5401 39.4741 58.0319 39.8129C57.5237 40.1518 57.0048 40.3847 56.4754 40.5118C55.9672 40.6388 55.4907 40.7024 55.046 40.7024H52.2189V38.1929H53.8389C54.0295 38.1929 54.2942 38.1612 54.6331 38.0976C54.9719 38.0341 55.3213 37.9176 55.6813 37.7482C56.0413 37.5788 56.3801 37.3459 56.6978 37.0494C57.0366 36.7741 57.2801 36.4141 57.4284 35.9694L58.2542 33.4282L52.1236 18.1176ZM93.114 18.1176H96.227V21.3894C96.227 21.7071 96.1952 22.0671 96.1317 22.4694C96.0893 22.8506 96.0364 23.2 95.9728 23.5176L96.0364 23.5494C96.0999 23.2318 96.174 22.8824 96.2587 22.5012C96.3646 22.12 96.5022 21.7812 96.6717 21.4847C97.3281 20.2141 98.1752 19.2929 99.2128 18.7212C100.25 18.1494 101.309 17.8635 102.389 17.8635C103.385 17.8635 104.221 18.0859 104.899 18.5306C105.598 18.9753 106.148 19.5682 106.55 20.3094C106.974 21.0506 107.27 21.9082 107.44 22.8824C107.63 23.8353 107.726 24.8412 107.726 25.9V34H104.613V25.9C104.613 24.3753 104.338 23.1788 103.787 22.3106C103.236 21.4212 102.421 20.9765 101.341 20.9765C100.939 20.9765 100.441 21.0718 99.8481 21.2624C99.2764 21.4318 98.7152 21.7812 98.1646 22.3106C97.6352 22.8188 97.1799 23.5388 96.7987 24.4706C96.4175 25.3812 96.227 26.5776 96.227 28.06V34H93.114V18.1176ZM118.128 34.1906C116.964 34.1906 115.852 34.0318 114.793 33.7141C113.734 33.3753 112.802 32.8671 111.998 32.1894C111.214 31.5118 110.589 30.6647 110.124 29.6482C109.658 28.6318 109.425 27.4353 109.425 26.0588C109.425 24.6824 109.658 23.4859 110.124 22.4694C110.589 21.4529 111.214 20.6059 111.998 19.9282C112.802 19.2506 113.734 18.7529 114.793 18.4353C115.852 18.0965 116.964 17.9271 118.128 17.9271C119.293 17.9271 120.384 18.0965 121.4 18.4353C122.438 18.7741 123.338 19.2824 124.1 19.96C124.862 20.6165 125.466 21.4529 125.911 22.4694C126.355 23.4859 126.578 24.6824 126.578 26.0588C126.578 26.2918 126.578 26.4506 126.578 26.5353C126.578 26.5988 126.556 26.7365 126.514 26.9482H112.665C112.898 28.5365 113.512 29.7224 114.507 30.5059C115.502 31.2894 116.731 31.6706 118.192 31.6494C119.42 31.6282 120.489 31.3953 121.4 30.9506C122.332 30.5059 123.02 29.6906 123.465 28.5047L126.324 28.8859C126.027 29.8388 125.604 30.6541 125.053 31.3318C124.524 32.0094 123.899 32.56 123.179 32.9835C122.459 33.3859 121.665 33.6929 120.796 33.9047C119.949 34.0953 119.06 34.1906 118.128 34.1906ZM118.192 20.3729C117.493 20.3729 116.794 20.5106 116.095 20.7859C115.396 21.04 114.782 21.4424 114.253 21.9929C113.724 22.5224 113.3 23.2 112.982 24.0259C112.686 24.8518 112.58 25.8259 112.665 26.9482C112.792 26.5247 112.929 26.1859 113.078 25.9318C113.247 25.6776 113.438 25.4871 113.649 25.36C113.882 25.2329 114.136 25.1482 114.412 25.1059C114.708 25.0635 115.047 25.0424 115.428 25.0424H123.624C123.391 23.4118 122.787 22.2365 121.813 21.5165C120.86 20.7753 119.653 20.3941 118.192 20.3729Z" fill="#C4C4C4"/>
<path d="M80.3704 34.2224C78.8457 34.2224 77.4057 33.9894 76.0504 33.5235C74.7163 33.0576 73.541 32.3588 72.5245 31.4271C71.5292 30.4953 70.7351 29.32 70.1422 27.9012C69.5704 26.4824 69.2845 24.8094 69.2845 22.8824C69.2845 20.9553 69.5704 19.2824 70.1422 17.8635C70.7351 16.4235 71.5292 15.2376 72.5245 14.3059C73.541 13.3529 74.7163 12.6541 76.0504 12.2094C77.4057 11.7435 78.8457 11.5212 80.3704 11.5424C81.8951 11.5635 83.3245 11.8071 84.6587 12.2729C86.0139 12.7176 87.1892 13.4165 88.1845 14.3694C89.201 15.3012 89.9951 16.4765 90.5669 17.8953C91.1598 19.2929 91.4563 20.9553 91.4563 22.8824C91.4563 24.8094 91.1598 26.4824 90.5669 27.9012C89.9951 29.32 89.201 30.4953 88.1845 31.4271C87.1892 32.3588 86.0139 33.0576 84.6587 33.5235C83.3245 33.9894 81.8951 34.2224 80.3704 34.2224ZM80.3704 14.4647C79.3539 14.4647 78.3692 14.6553 77.4163 15.0365C76.4634 15.3965 75.6163 15.9365 74.8751 16.6565C74.1339 17.3765 73.5304 18.2659 73.0645 19.3247C72.6198 20.3624 72.3975 21.5482 72.3975 22.8824C72.3975 24.2165 72.6198 25.4024 73.0645 26.44C73.5092 27.4776 74.1022 28.3565 74.8434 29.0765C75.6057 29.7965 76.4634 30.3471 77.4163 30.7282C78.3692 31.1094 79.3539 31.3 80.3704 31.3C81.4504 31.3 82.4669 31.1094 83.4198 30.7282C84.3939 30.3471 85.241 29.7965 85.961 29.0765C86.7022 28.3565 87.2845 27.4776 87.7081 26.44C88.1316 25.4024 88.3434 24.2165 88.3434 22.8824C88.3434 21.5482 88.121 20.3624 87.6763 19.3247C87.2316 18.2871 86.6281 17.4082 85.8657 16.6882C85.1245 15.9682 84.2775 15.4282 83.3245 15.0682C82.3716 14.6871 81.3869 14.4859 80.3704 14.4647Z" fill="black"/>
<ellipse cx="80.3857" cy="23.1729" rx="6.5" ry="7" fill="black"/>
<mask id="path-4-outside-1_4014_218" maskUnits="userSpaceOnUse" x="50" y="17" width="20" height="25" fill="black">
<rect fill="white" x="50" y="17" width="20" height="25"/>
<path d="M52.4129 18.1176H55.7482L59.8459 28.5365C59.9941 28.8753 60.1 29.2565 60.1635 29.68C60.2271 30.1035 60.2588 30.4953 60.2588 30.8553H60.3224C60.3224 30.4953 60.3541 30.1035 60.4176 29.68C60.5024 29.2565 60.6188 28.8753 60.7671 28.5365L64.8965 18.1176H68.2318L60.9576 36.2553C60.64 37.1447 60.2482 37.8753 59.7824 38.4471C59.3165 39.0188 58.8294 39.4741 58.3212 39.8129C57.8129 40.1518 57.2941 40.3847 56.7647 40.5118C56.2565 40.6388 55.78 40.7024 55.3353 40.7024H52.5082V38.1929H54.1282C54.3188 38.1929 54.5835 38.1612 54.9224 38.0976C55.2612 38.0341 55.6106 37.9176 55.9706 37.7482C56.3306 37.5788 56.6694 37.3459 56.9871 37.0494C57.3259 36.7741 57.5694 36.4141 57.7176 35.9694L58.5435 33.4282L52.4129 18.1176Z"/>
</mask>
<path d="M52.4129 18.1176H55.7482L59.8459 28.5365C59.9941 28.8753 60.1 29.2565 60.1635 29.68C60.2271 30.1035 60.2588 30.4953 60.2588 30.8553H60.3224C60.3224 30.4953 60.3541 30.1035 60.4176 29.68C60.5024 29.2565 60.6188 28.8753 60.7671 28.5365L64.8965 18.1176H68.2318L60.9576 36.2553C60.64 37.1447 60.2482 37.8753 59.7824 38.4471C59.3165 39.0188 58.8294 39.4741 58.3212 39.8129C57.8129 40.1518 57.2941 40.3847 56.7647 40.5118C56.2565 40.6388 55.78 40.7024 55.3353 40.7024H52.5082V38.1929H54.1282C54.3188 38.1929 54.5835 38.1612 54.9224 38.0976C55.2612 38.0341 55.6106 37.9176 55.9706 37.7482C56.3306 37.5788 56.6694 37.3459 56.9871 37.0494C57.3259 36.7741 57.5694 36.4141 57.7176 35.9694L58.5435 33.4282L52.4129 18.1176Z" fill="#C4C4C4"/>
<path d="M52.4129 18.1176V17.125H50.9462L51.4914 18.4866L52.4129 18.1176ZM55.7482 18.1176L56.672 17.7543L56.4245 17.125H55.7482V18.1176ZM59.8459 28.5365L58.9221 28.8998L58.929 28.9172L58.9365 28.9343L59.8459 28.5365ZM60.1635 29.68L59.1819 29.8272V29.8273L60.1635 29.68ZM60.2588 30.8553H59.2662V31.8479H60.2588V30.8553ZM60.3224 30.8553V31.8479H61.315V30.8553H60.3224ZM60.4176 29.68L59.4443 29.4853L59.4396 29.5089L59.436 29.5328L60.4176 29.68ZM60.7671 28.5365L61.6765 28.9343L61.6835 28.9184L61.6899 28.9022L60.7671 28.5365ZM64.8965 18.1176V17.125H64.2221L63.9737 17.7519L64.8965 18.1176ZM68.2318 18.1176L69.1531 18.4871L69.6994 17.125H68.2318V18.1176ZM60.9576 36.2553L60.0363 35.8858L60.0292 35.9035L60.0228 35.9214L60.9576 36.2553ZM59.7824 38.4471L59.0128 37.82H59.0128L59.7824 38.4471ZM58.3212 39.8129L58.8718 40.6389V40.6389L58.3212 39.8129ZM56.7647 40.5118L56.533 39.5465L56.524 39.5488L56.7647 40.5118ZM52.5082 40.7024H51.5156V41.695H52.5082V40.7024ZM52.5082 38.1929V37.2003H51.5156V38.1929H52.5082ZM54.9224 38.0976L55.1053 39.0733H55.1053L54.9224 38.0976ZM55.9706 37.7482L56.3933 38.6464V38.6464L55.9706 37.7482ZM56.9871 37.0494L56.3611 36.279L56.3347 36.3005L56.3098 36.3237L56.9871 37.0494ZM57.7176 35.9694L58.6594 36.2833L58.6617 36.2762L57.7176 35.9694ZM58.5435 33.4282L59.4876 33.735L59.5987 33.3931L59.465 33.0592L58.5435 33.4282ZM52.4129 18.1176V19.1103H55.7482V18.1176V17.125H52.4129V18.1176ZM55.7482 18.1176L54.8245 18.481L58.9221 28.8998L59.8459 28.5365L60.7697 28.1732L56.672 17.7543L55.7482 18.1176ZM59.8459 28.5365L58.9365 28.9343C59.0447 29.1817 59.1293 29.4768 59.1819 29.8272L60.1635 29.68L61.1452 29.5328C61.0707 29.0361 60.9435 28.5689 60.7553 28.1386L59.8459 28.5365ZM60.1635 29.68L59.1819 29.8273C59.2394 30.2109 59.2662 30.5528 59.2662 30.8553H60.2588H61.2515C61.2515 30.4378 61.2147 29.9962 61.1452 29.5327L60.1635 29.68ZM60.2588 30.8553V31.8479H60.3224V30.8553V29.8626H60.2588V30.8553ZM60.3224 30.8553H61.315C61.315 30.5528 61.3418 30.2109 61.3993 29.8272L60.4176 29.68L59.436 29.5328C59.3665 29.9962 59.3297 30.4378 59.3297 30.8553H60.3224ZM60.4176 29.68L61.391 29.8747C61.464 29.5096 61.5611 29.1981 61.6765 28.9343L60.7671 28.5365L59.8576 28.1386C59.6766 28.5525 59.5407 29.0033 59.4443 29.4853L60.4176 29.68ZM60.7671 28.5365L61.6899 28.9022L65.8193 18.4834L64.8965 18.1176L63.9737 17.7519L59.8443 28.1707L60.7671 28.5365ZM64.8965 18.1176V19.1103H68.2318V18.1176V17.125H64.8965V18.1176ZM68.2318 18.1176L67.3105 17.7482L60.0363 35.8858L60.9576 36.2553L61.879 36.6248L69.1531 18.4871L68.2318 18.1176ZM60.9576 36.2553L60.0228 35.9214C59.733 36.7328 59.3905 37.3565 59.0128 37.82L59.7824 38.4471L60.5519 39.0741C61.106 38.3941 61.547 37.5566 61.8925 36.5892L60.9576 36.2553ZM59.7824 38.4471L59.0128 37.82C58.597 38.3303 58.1813 38.7132 57.7706 38.987L58.3212 39.8129L58.8718 40.6389C59.4776 40.235 60.0359 39.7073 60.5519 39.0741L59.7824 38.4471ZM58.3212 39.8129L57.7706 38.987C57.3478 39.2688 56.9358 39.4499 56.533 39.5465L56.7647 40.5118L56.9964 41.477C57.6525 41.3195 58.278 41.0347 58.8718 40.6389L58.3212 39.8129ZM56.7647 40.5118L56.524 39.5488C56.0809 39.6595 55.686 39.7097 55.3353 39.7097V40.7024V41.695C55.874 41.695 56.432 41.6181 57.0055 41.4748L56.7647 40.5118ZM55.3353 40.7024V39.7097H52.5082V40.7024V41.695H55.3353V40.7024ZM52.5082 40.7024H53.5009V38.1929H52.5082H51.5156V40.7024H52.5082ZM52.5082 38.1929V39.1856H54.1282V38.1929V37.2003H52.5082V38.1929ZM54.1282 38.1929V39.1856C54.4106 39.1856 54.7461 39.1406 55.1053 39.0733L54.9224 38.0976L54.7394 37.122C54.4209 37.1817 54.227 37.2003 54.1282 37.2003V38.1929ZM54.9224 38.0976L55.1053 39.0733C55.5386 38.9921 55.9684 38.8463 56.3933 38.6464L55.9706 37.7482L55.5479 36.8501C55.2528 36.989 54.9838 37.0762 54.7394 37.122L54.9224 38.0976ZM55.9706 37.7482L56.3933 38.6464C56.8548 38.4292 57.2782 38.1355 57.6644 37.7751L56.9871 37.0494L56.3098 36.3237C56.0606 36.5563 55.8064 36.7284 55.5479 36.8501L55.9706 37.7482ZM56.9871 37.0494L57.613 37.8198C58.1092 37.4166 58.456 36.8933 58.6594 36.2833L57.7176 35.9694L56.7759 35.6555C56.6828 35.9349 56.5425 36.1316 56.3611 36.279L56.9871 37.0494ZM57.7176 35.9694L58.6617 36.2762L59.4876 33.735L58.5435 33.4282L57.5995 33.1214L56.7736 35.6626L57.7176 35.9694ZM58.5435 33.4282L59.465 33.0592L53.3345 17.7487L52.4129 18.1176L51.4914 18.4866L57.622 33.7972L58.5435 33.4282Z" fill="black" mask="url(#path-4-outside-1_4014_218)"/>
<mask id="path-6-outside-2_4014_218" maskUnits="userSpaceOnUse" x="91.6836" y="16" width="18" height="19" fill="black">
<rect fill="white" x="91.6836" y="16" width="18" height="19"/>
<path d="M93.6365 18.1176H96.7495V21.3894C96.7495 21.7071 96.7177 22.0671 96.6542 22.4694C96.6118 22.8506 96.5589 23.2 96.4954 23.5176L96.5589 23.5494C96.6224 23.2318 96.6965 22.8824 96.7812 22.5012C96.8871 22.12 97.0248 21.7812 97.1942 21.4847C97.8507 20.2141 98.6977 19.2929 99.7354 18.7212C100.773 18.1494 101.832 17.8635 102.912 17.8635C103.907 17.8635 104.744 18.0859 105.421 18.5306C106.12 18.9753 106.671 19.5682 107.073 20.3094C107.497 21.0506 107.793 21.9082 107.962 22.8824C108.153 23.8353 108.248 24.8412 108.248 25.9V34H105.135V25.9C105.135 24.3753 104.86 23.1788 104.309 22.3106C103.759 21.4212 102.944 20.9765 101.864 20.9765C101.461 20.9765 100.964 21.0718 100.371 21.2624C99.7989 21.4318 99.2377 21.7812 98.6871 22.3106C98.1577 22.8188 97.7024 23.5388 97.3212 24.4706C96.9401 25.3812 96.7495 26.5776 96.7495 28.06V34H93.6365V18.1176Z"/>
</mask>
<path d="M93.6365 18.1176H96.7495V21.3894C96.7495 21.7071 96.7177 22.0671 96.6542 22.4694C96.6118 22.8506 96.5589 23.2 96.4954 23.5176L96.5589 23.5494C96.6224 23.2318 96.6965 22.8824 96.7812 22.5012C96.8871 22.12 97.0248 21.7812 97.1942 21.4847C97.8507 20.2141 98.6977 19.2929 99.7354 18.7212C100.773 18.1494 101.832 17.8635 102.912 17.8635C103.907 17.8635 104.744 18.0859 105.421 18.5306C106.12 18.9753 106.671 19.5682 107.073 20.3094C107.497 21.0506 107.793 21.9082 107.962 22.8824C108.153 23.8353 108.248 24.8412 108.248 25.9V34H105.135V25.9C105.135 24.3753 104.86 23.1788 104.309 22.3106C103.759 21.4212 102.944 20.9765 101.864 20.9765C101.461 20.9765 100.964 21.0718 100.371 21.2624C99.7989 21.4318 99.2377 21.7812 98.6871 22.3106C98.1577 22.8188 97.7024 23.5388 97.3212 24.4706C96.9401 25.3812 96.7495 26.5776 96.7495 28.06V34H93.6365V18.1176Z" fill="#C4C4C4"/>
<path d="M93.6365 18.1176V17.125H92.6439V18.1176H93.6365ZM96.7495 18.1176H97.7421V17.125H96.7495V18.1176ZM96.6542 22.4694L95.6737 22.3146L95.6701 22.3371L95.6676 22.3598L96.6542 22.4694ZM96.4954 23.5176L95.522 23.323L95.3733 24.0664L96.0514 24.4055L96.4954 23.5176ZM96.5589 23.5494L96.115 24.4373L97.2774 25.0185L97.5323 23.7441L96.5589 23.5494ZM96.7812 22.5012L95.8248 22.2355L95.8179 22.2605L95.8122 22.2858L96.7812 22.5012ZM97.1942 21.4847L98.056 21.9772L98.0664 21.959L98.0761 21.9404L97.1942 21.4847ZM99.7354 18.7212L99.2563 17.8518H99.2563L99.7354 18.7212ZM105.421 18.5306L104.877 19.3606L104.888 19.368L105.421 18.5306ZM107.073 20.3094L106.201 20.783L106.206 20.7925L106.211 20.8019L107.073 20.3094ZM107.962 22.8824L106.984 23.0524L106.987 23.0648L106.989 23.077L107.962 22.8824ZM108.248 34V34.9926H109.241V34H108.248ZM105.135 34H104.143V34.9926H105.135V34ZM104.309 22.3106L103.465 22.8331L103.471 22.8422L104.309 22.3106ZM100.371 21.2624L100.653 22.2141L100.664 22.2109L100.674 22.2074L100.371 21.2624ZM98.6871 22.3106L99.3746 23.0267L99.3751 23.0261L98.6871 22.3106ZM97.3212 24.4706L98.2369 24.8539L98.24 24.8464L97.3212 24.4706ZM96.7495 34V34.9926H97.7421V34H96.7495ZM93.6365 34H92.6439V34.9926H93.6365V34ZM93.6365 18.1176V19.1103H96.7495V18.1176V17.125H93.6365V18.1176ZM96.7495 18.1176H95.7568V21.3894H96.7495H97.7421V18.1176H96.7495ZM96.7495 21.3894H95.7568C95.7568 21.6431 95.7313 21.9499 95.6737 22.3146L96.6542 22.4694L97.6347 22.6242C97.7042 22.1842 97.7421 21.771 97.7421 21.3894H96.7495ZM96.6542 22.4694L95.6676 22.3598C95.6279 22.7175 95.579 23.038 95.522 23.323L96.4954 23.5176L97.4687 23.7123C97.5388 23.362 97.5958 22.9837 97.6408 22.579L96.6542 22.4694ZM96.4954 23.5176L96.0514 24.4055L96.115 24.4373L96.5589 23.5494L97.0028 22.6616L96.9393 22.6298L96.4954 23.5176ZM96.5589 23.5494L97.5323 23.7441C97.5942 23.4346 97.6668 23.0922 97.7503 22.7165L96.7812 22.5012L95.8122 22.2858C95.7263 22.6725 95.6507 23.029 95.5855 23.3547L96.5589 23.5494ZM96.7812 22.5012L97.7377 22.7669C97.8249 22.4527 97.9333 22.192 98.056 21.9772L97.1942 21.4847L96.3323 20.9922C96.1163 21.3703 95.9493 21.7873 95.8248 22.2355L96.7812 22.5012ZM97.1942 21.4847L98.0761 21.9404C98.6612 20.8079 99.382 20.0492 100.214 19.5906L99.7354 18.7212L99.2563 17.8518C98.0134 18.5366 97.0401 19.6204 96.3123 21.0291L97.1942 21.4847ZM99.7354 18.7212L100.214 19.5906C101.12 19.0916 102.015 18.8562 102.912 18.8562V17.8635V16.8709C101.648 16.8709 100.426 17.2072 99.2563 17.8518L99.7354 18.7212ZM102.912 17.8635V18.8562C103.758 18.8562 104.394 19.0439 104.877 19.3605L105.421 18.5306L105.966 17.7007C105.093 17.1278 104.056 16.8709 102.912 16.8709V17.8635ZM105.421 18.5306L104.888 19.368C105.442 19.7206 105.877 20.1872 106.201 20.783L107.073 20.3094L107.945 19.8358C107.464 18.9493 106.798 18.23 105.954 17.6931L105.421 18.5306ZM107.073 20.3094L106.211 20.8019C106.569 21.4287 106.832 22.1741 106.984 23.0524L107.962 22.8824L108.94 22.7123C108.754 21.6424 108.424 20.6725 107.935 19.8169L107.073 20.3094ZM107.962 22.8824L106.989 23.077C107.166 23.9605 107.256 24.9008 107.256 25.9H108.248H109.241C109.241 24.7816 109.14 23.7101 108.936 22.6877L107.962 22.8824ZM108.248 25.9H107.256V34H108.248H109.241V25.9H108.248ZM108.248 34V33.0074H105.135V34V34.9926H108.248V34ZM105.135 34H106.128V25.9H105.135H104.143V34H105.135ZM105.135 25.9H106.128C106.128 24.2723 105.837 22.8655 105.148 21.779L104.309 22.3106L103.471 22.8422C103.883 23.4922 104.143 24.4783 104.143 25.9H105.135ZM104.309 22.3106L105.153 21.7881C104.415 20.595 103.274 19.9838 101.864 19.9838V20.9765V21.9691C102.613 21.9691 103.103 22.2473 103.465 22.8331L104.309 22.3106ZM101.864 20.9765V19.9838C101.318 19.9838 100.71 20.1105 100.067 20.3173L100.371 21.2624L100.674 22.2074C101.217 22.033 101.605 21.9691 101.864 21.9691V20.9765ZM100.371 21.2624L100.089 20.3106C99.3279 20.536 98.6329 20.9856 97.9991 21.5951L98.6871 22.3106L99.3751 23.0261C99.8425 22.5768 100.27 22.3275 100.653 22.2141L100.371 21.2624ZM98.6871 22.3106L97.9997 21.5945C97.3404 22.2274 96.8178 23.0795 96.4025 24.0947L97.3212 24.4706L98.24 24.8464C98.587 23.9982 98.975 23.4102 99.3746 23.0267L98.6871 22.3106ZM97.3212 24.4706L96.4056 24.0873C95.9547 25.1644 95.7568 26.5058 95.7568 28.06H96.7495H97.7421C97.7421 26.6495 97.9254 25.598 98.2369 24.8539L97.3212 24.4706ZM96.7495 28.06H95.7568V34H96.7495H97.7421V28.06H96.7495ZM96.7495 34V33.0074H93.6365V34V34.9926H96.7495V34ZM93.6365 34H94.6292V18.1176H93.6365H92.6439V34H93.6365Z" fill="black" mask="url(#path-6-outside-2_4014_218)"/>
</svg>
